<?xml version="1.0" standalone="no"?>
<!DOCTYPE svg PUBLIC "-//W3C//DTD SVG 20010904//EN"
 "http://www.w3.org/TR/2001/REC-SVG-20010904/DTD/svg10.dtd">
<svg version="1.0" xmlns="http://www.w3.org/2000/svg"
 width="1200.000000pt" height="1200.000000pt" viewBox="0 0 1200.000000 1200.000000"
 preserveAspectRatio="xMidYMid meet">

<g transform="translate(0.000000,1200.000000) scale(0.100000,-0.100000)"
fill="#000000" stroke="none">
<path d="M10380 11914 c-132 -21 -320 -86 -435 -149 -296 -164 -525 -437 -631
-752 -65 -195 -85 -459 -49 -658 87 -485 431 -884 895 -1039 146 -49 261 -67
420 -68 364 -1 674 123 936 374 204 197 334 435 391 716 24 121 24 385 0 502
-115 545 -521 953 -1062 1065 -113 24 -346 28 -465 9z"/>
<path d="M5860 10584 c-1152 -46 -2170 -470 -3009 -1252 -402 -375 -783 -904
-1015 -1408 -492 -1073 -557 -2273 -182 -3389 324 -964 959 -1790 1816 -2361
1163 -774 2640 -971 3974 -529 1033 342 1923 1055 2486 1991 627 1044 814
2285 521 3469 -173 698 -505 1338 -980 1890 -720 836 -1741 1395 -2821 1544
-246 34 -585 53 -790 45z m2261 -1360 c182 -30 379 -110 539 -217 96 -64 283
-251 347 -347 169 -252 241 -506 230 -810 -8 -216 -44 -365 -133 -543 -186
-372 -519 -631 -929 -723 -111 -25 -360 -30 -485 -10 -271 43 -520 169 -721
363 -196 190 -327 426 -385 693 -23 107 -26 408 -5 515 95 482 444 879 902
1029 57 18 138 39 179 46 41 6 82 13 90 15 51 10 289 3 371 -11z m-4849 -3841
l3 -1338 743 -3 742 -2 0 -165 0 -165 -935 0 -935 0 0 1505 0 1505 190 0 190
0 2 -1337z m5213 536 c328 -40 522 -176 592 -415 15 -53 18 -136 23 -784 l5
-725 23 -32 c31 -44 95 -67 172 -61 l60 4 0 -127 0 -128 -41 -11 c-231 -63
-418 -21 -496 109 -18 30 -38 79 -44 110 -7 31 -13 57 -15 59 -1 2 -43 -29
-93 -68 -49 -39 -125 -91 -168 -116 -166 -95 -382 -138 -577 -116 -310 34
-513 192 -583 453 -24 88 -23 280 1 369 44 163 150 288 308 364 146 71 216 86
689 151 207 28 258 41 324 79 70 41 85 81 85 218 0 97 -3 120 -24 163 -59 128
-216 195 -456 195 -295 0 -450 -99 -494 -314 l-13 -61 -171 -3 -172 -2 0 50
c0 80 28 198 66 279 40 86 135 186 227 240 78 46 235 98 344 115 109 17 309
20 428 5z m-3025 -831 c0 -845 1 -862 54 -965 70 -139 253 -226 441 -209 232
21 402 157 487 389 54 149 58 208 58 920 l0 647 170 0 170 0 0 -1080 0 -1080
-155 0 -155 0 0 146 0 145 -69 -83 c-155 -189 -313 -276 -544 -300 -335 -36
-624 89 -737 319 -60 121 -60 115 -60 1066 l0 867 170 0 170 0 0 -782z"/>
<path d="M8705 4755 c-52 -24 -192 -53 -408 -85 -300 -45 -428 -86 -517 -166
-115 -105 -133 -319 -37 -446 110 -144 355 -185 613 -104 142 45 314 179 366
285 22 43 23 60 26 289 2 133 -1 242 -5 241 -4 0 -21 -7 -38 -14z"/>
</g>
</svg>
