<?xml version="1.0" standalone="no"?>
<!DOCTYPE svg PUBLIC "-//W3C//DTD SVG 20010904//EN"
 "http://www.w3.org/TR/2001/REC-SVG-20010904/DTD/svg10.dtd">
<svg version="1.0" xmlns="http://www.w3.org/2000/svg"
 width="2048.000000pt" height="2048.000000pt" viewBox="0 0 2048.000000 2048.000000"
 preserveAspectRatio="xMidYMid meet">

<g transform="translate(0.000000,2048.000000) scale(0.100000,-0.100000)"
fill="#000000" stroke="none">
<path d="M10010 20474 c-1301 -40 -2478 -285 -3643 -760 -1580 -644 -3016
-1716 -4098 -3059 -854 -1059 -1488 -2278 -1864 -3580 -210 -728 -322 -1383
-387 -2260 -8 -119 -12 -1526 -15 -5487 l-4 -5328 1185 0 1185 0 4 5303 c3
3858 7 5337 15 5432 37 422 64 635 117 926 215 1177 706 2302 1422 3264 454
609 998 1155 1606 1611 705 529 1488 932 2332 1201 585 186 1181 300 1827 348
241 18 812 21 1048 5 1932 -127 3700 -923 5061 -2280 514 -512 918 -1037 1277
-1660 945 -1640 1264 -3594 891 -5465 -406 -2035 -1613 -3838 -3347 -4999
-1305 -873 -2843 -1336 -4402 -1324 -240 2 -250 3 -105 8 l160 5 -175 8 c-982
44 -1922 232 -2368 473 l-82 45 0 1688 c0 928 3 1690 6 1694 3 3 36 -13 72
-37 933 -595 2089 -837 3207 -670 1004 149 1947 634 2661 1366 349 359 613
730 837 1178 170 340 275 622 362 972 89 365 124 638 132 1033 12 583 -58
1047 -237 1585 -236 710 -612 1316 -1150 1850 -654 651 -1473 1089 -2370 1270
-335 67 -576 91 -930 91 -264 0 -420 -10 -655 -42 -1277 -174 -2428 -874
-3187 -1938 -259 -363 -477 -793 -623 -1226 -111 -330 -179 -651 -227 -1070
-9 -86 -13 -1243 -15 -5378 l-3 -5267 2717 3 c2979 3 2749 -1 3263 63 2548
315 4860 1562 6541 3529 1251 1464 2069 3278 2338 5185 79 559 94 821 88 1560
-4 628 -8 706 -63 1155 -225 1854 -971 3631 -2142 5105 -405 509 -916 1036
-1412 1456 -1699 1438 -3827 2285 -6040 2403 -211 12 -654 20 -810 15z"/>
</g>
</svg>
